<svg width="21" height="20" viewBox="0 0 21 20" fill="none" xmlns="http://www.w3.org/2000/svg">
<g clip-path="url(#clip0_29_1105)">
<path d="M18.2333 5.33342L10.2833 13.2834C9.49158 14.075 7.14156 14.4417 6.61656 13.9167C6.09156 13.3917 6.44989 11.0417 7.24156 10.25L15.1999 2.29172C15.3962 2.07761 15.6338 1.90549 15.8984 1.78574C16.163 1.66599 16.4492 1.60107 16.7396 1.59496C17.0299 1.58885 17.3186 1.64163 17.588 1.75014C17.8574 1.85865 18.1021 2.02065 18.3072 2.22632C18.5123 2.43198 18.6736 2.67707 18.7813 2.94678C18.8891 3.21651 18.9412 3.50526 18.9343 3.79563C18.9273 4.08601 18.8616 4.372 18.7412 4.63629C18.6207 4.90058 18.4479 5.13774 18.2333 5.33342Z" stroke="#9747FF" stroke-width="3.75" stroke-linecap="round" stroke-linejoin="round"/>
<path d="M9.66669 3.33325H5.50002C4.61596 3.33325 3.76817 3.68444 3.14305 4.30956C2.51793 4.93469 2.16669 5.78253 2.16669 6.66659V14.9999C2.16669 15.884 2.51793 16.7318 3.14305 17.3569C3.76817 17.9821 4.61596 18.3333 5.50002 18.3333H14.6667C16.5084 18.3333 17.1667 16.8333 17.1667 14.9999V10.8333" stroke="#9747FF" stroke-width="3.75" stroke-linecap="round" stroke-linejoin="round"/>
</g>
<defs>
<clipPath id="clip0_29_1105">
<rect width="20" height="20" fill="white" transform="translate(0.5)"/>
</clipPath>
</defs>
</svg>
