<svg width="20" height="20" viewBox="0 0 20 20" fill="none" xmlns="http://www.w3.org/2000/svg">
<g clip-path="url(#clip0_212_572)">
<path d="M9.99998 10.0001H18.75C18.7523 11.1485 18.5275 12.2861 18.0884 13.3473C17.6494 14.4085 17.0047 15.3723 16.1916 16.1834L9.99998 10.0001ZM9.99998 10.0001V1.2334C8.56083 1.2335 7.14392 1.58858 5.8748 2.26717C4.60568 2.94576 3.52353 3.92691 2.72423 5.12369C1.92494 6.32046 1.43317 7.69592 1.29251 9.12817C1.15185 10.5604 1.36663 12.0053 1.91783 13.3347C2.46903 14.6641 3.33963 15.837 4.45249 16.7495C5.56534 17.6621 6.8861 18.286 8.29773 18.5661C9.70937 18.8462 11.1683 18.7737 12.5452 18.3552C13.9222 17.9367 15.1746 17.185 16.1916 16.1667" stroke="white" stroke-width="2" stroke-miterlimit="10"/>
<path d="M13.1833 6.79988H15.9667C16.2827 6.79988 16.5858 6.67433 16.8093 6.45085C17.0328 6.22737 17.1583 5.92426 17.1583 5.60821C17.1583 5.29216 17.0328 4.98906 16.8093 4.76558C16.5858 4.5421 16.2827 4.41655 15.9667 4.41655H15.1333C14.8165 4.41435 14.5134 4.28695 14.2902 4.06214C14.067 3.83734 13.9417 3.53337 13.9417 3.21655C13.9416 3.05721 13.9735 2.89948 14.0355 2.75268C14.0974 2.60589 14.1882 2.47301 14.3024 2.3619C14.4166 2.2508 14.552 2.16373 14.7004 2.10584C14.8489 2.04795 15.0074 2.02042 15.1667 2.02488H17.9583" stroke="white" stroke-width="2" stroke-miterlimit="10"/>
<path d="M15.5667 0.43335V2.02502" stroke="white" stroke-width="2" stroke-miterlimit="10"/>
<path d="M15.5667 6.80005V8.39172" stroke="white" stroke-width="2" stroke-miterlimit="10"/>
</g>
<defs>
<clipPath id="clip0_212_572">
<rect width="20" height="20" fill="white"/>
</clipPath>
</defs>
</svg>
