<svg width="28" height="28" viewBox="0 0 28 28" fill="none" xmlns="http://www.w3.org/2000/svg">
<g clip-path="url(#clip0_57_595)">
<path d="M4.44347 14.4887C4.19882 14.1545 4.27145 13.6852 4.60569 13.4406L16.3062 4.87625C16.6405 4.63161 17.1098 4.70423 17.3544 5.03847C17.5991 5.37271 17.5264 5.84201 17.1922 6.08665L5.49165 14.651C5.15741 14.8956 4.68812 14.823 4.44347 14.4887Z" fill="#8A603C"/>
<path d="M10.3968 14.5234C10.1522 14.1892 10.0893 13.819 10.2565 13.6967L16.1067 9.41457C16.2738 9.29224 16.6077 9.46404 16.8523 9.79828C17.097 10.1325 17.1598 10.5026 16.9927 10.625L11.1424 14.9071C10.9753 15.0294 10.6415 14.8576 10.3968 14.5234Z" fill="#8A603C"/>
</g>
<defs>
<clipPath id="clip0_57_595">
<rect width="20" height="20" fill="white" transform="translate(0.0241699 11.8372) rotate(-36.2026)"/>
</clipPath>
</defs>
</svg>
