<svg width="25" height="25" viewBox="0 0 25 25" fill="none" xmlns="http://www.w3.org/2000/svg">
<path d="M12.5 15.6251L15.625 12.5001M15.625 12.5001L12.5 9.37508M15.625 12.5001H4.16663M9.37496 7.5507V7.50029C9.37496 6.33351 9.37496 5.74969 9.60203 5.30404C9.80176 4.91203 10.1202 4.59355 10.5123 4.39382C10.9579 4.16675 11.5417 4.16675 12.7085 4.16675H17.5002C18.6669 4.16675 19.2495 4.16675 19.6952 4.39382C20.0871 4.59355 20.4067 4.91203 20.6064 5.30404C20.8333 5.74925 20.8333 6.33236 20.8333 7.49686V17.5038C20.8333 18.6683 20.8333 19.2506 20.6064 19.6958C20.4067 20.0878 20.0871 20.4069 19.6952 20.6065C19.25 20.8334 18.6677 20.8334 17.5032 20.8334H12.7051C11.5406 20.8334 10.9575 20.8334 10.5123 20.6065C10.1202 20.4069 9.80176 20.0875 9.60203 19.6955C9.37496 19.2499 9.37496 18.6669 9.37496 17.5001V17.448" stroke="white" stroke-width="2" stroke-linecap="round" stroke-linejoin="round"/>
</svg>
