<svg width="25" height="25" viewBox="0 0 25 25" fill="none" xmlns="http://www.w3.org/2000/svg">
<path d="M16.4062 19.1406C16.4844 18.5938 16.4062 18.0469 16.0937 17.5781C16.6406 17.2656 17.0312 16.6406 17.1875 16.0156C17.2656 15.4688 17.1875 14.9219 16.875 14.4531C17.4219 14.1406 17.8125 13.5156 17.9687 12.8906C17.9687 12.5 17.9687 12.1094 17.8125 11.7188H21.0156C22.1875 11.7188 23.2031 10.8594 23.4375 9.76562C23.5156 9.0625 23.3594 8.35938 22.8906 7.89063C22.4219 7.34375 21.7969 7.03125 21.0937 7.03125H16.9531C17.1094 6.5625 17.1875 6.09375 17.1875 5.54687C17.1094 5.07812 16.9531 4.53125 16.6406 4.14063C16.4844 3.98438 16.25 3.90625 16.0156 3.90625L9.99998 3.90625C5.54686 3.90625 1.79686 7.42188 1.56248 11.7188C1.56248 11.875 1.56248 11.9531 1.56248 12.1094C1.56248 12.1875 1.56248 12.3438 1.56248 12.4219C1.71873 17.1875 5.85936 21.0938 10.8594 21.0938H13.9844C15.1562 21.0938 16.1719 20.2344 16.4062 19.1406ZM10.8594 19.5312C6.71873 19.5312 3.28123 16.3281 3.12498 12.3438C3.12498 12.1094 3.12498 11.9531 3.12498 11.7188C3.28123 8.28125 6.40623 5.46875 9.99998 5.46875L15.5469 5.46875C15.625 5.54688 15.625 5.625 15.625 5.70313C15.625 6.01563 15.5469 6.32812 15.3125 6.64062C15.0781 6.875 14.7656 7.03125 14.4531 7.03125L10.1562 7.03125C9.68748 7.03125 9.37498 7.34375 9.37498 7.8125C9.37498 8.28125 9.68748 8.59375 10.1562 8.59375H14.4531H15.625H21.0937C21.3281 8.59375 21.5625 8.67187 21.7187 8.90625C21.875 9.0625 21.875 9.29688 21.875 9.53125C21.7969 9.84375 21.4062 10.1562 21.0156 10.1562H15.625H14.0625C13.5937 10.1562 13.2812 10.4688 13.2812 10.9375C13.2812 11.4062 13.5937 11.7188 14.0625 11.7188H15.625C15.8594 11.7188 16.0937 11.7969 16.25 12.0312C16.4062 12.1875 16.4844 12.4219 16.4062 12.6563C16.3281 13.0469 15.9375 13.2812 15.5469 13.2812H14.8437H14.0625C13.5937 13.2812 13.2812 13.5938 13.2812 14.0625C13.2812 14.5312 13.5937 14.8438 14.0625 14.8438H14.8437C15.0781 14.8438 15.3125 14.9219 15.4687 15.1562C15.625 15.3125 15.7031 15.5469 15.625 15.7813C15.5469 16.1719 15.1562 16.4062 14.7656 16.4062H14.0625H13.2812C12.8125 16.4062 12.5 16.7188 12.5 17.1875C12.5 17.6562 12.8125 17.9688 13.2812 17.9688H14.0625C14.2969 17.9688 14.5312 18.0469 14.6875 18.2812C14.8437 18.4375 14.9219 18.6719 14.8437 18.9063C14.7656 19.2969 14.375 19.5312 13.9844 19.5312H10.8594Z" fill="#CA52CC" stroke="#CA52CC"/>
</svg>
