<svg width="20" height="20" viewBox="0 0 20 20" fill="none" xmlns="http://www.w3.org/2000/svg">
<path d="M0 15.625V4.375H20V15.625H0ZM1.25 5.58625V14.375H18.75V5.58625H1.25ZM13.125 10C13.125 7.92937 11.7262 6.25 10 6.25H18.125V13.75H10C11.7262 13.75 13.125 12.0706 13.125 10ZM15.625 11.25C16.1425 11.25 16.5625 10.69 16.5625 10C16.5625 9.31 16.1425 8.75 15.625 8.75C15.1075 8.75 14.6875 9.31 14.6875 10C14.6875 10.69 15.1075 11.25 15.625 11.25ZM11.3237 8.42375C11.3144 8.45812 11.3012 8.4825 11.285 8.49813C11.2681 8.51375 11.2456 8.52125 11.2169 8.52125C11.1881 8.52125 11.1431 8.50375 11.08 8.4675C11.0175 8.43063 10.9406 8.39188 10.85 8.34938C10.7587 8.30688 10.6538 8.26813 10.5338 8.2325C10.4137 8.19687 10.2825 8.18062 10.1394 8.18062C10.0269 8.18062 9.92937 8.19375 9.84625 8.22125C9.76312 8.24875 9.69312 8.28625 9.6375 8.33375C9.58125 8.38187 9.54 8.44 9.5125 8.50688C9.485 8.57375 9.47188 8.64563 9.47188 8.72062C9.47188 8.83313 9.5025 8.93 9.56375 9.01187C9.625 9.09375 9.70687 9.16687 9.81 9.23063C9.91313 9.295 10.0294 9.35437 10.16 9.41C10.2894 9.46625 10.4225 9.52563 10.5581 9.5875C10.6937 9.65063 10.8263 9.72125 10.9563 9.80062C11.0863 9.88 11.2031 9.975 11.3044 10.0856C11.4056 10.1962 11.4875 10.3262 11.5506 10.4756C11.6131 10.6256 11.6437 10.8012 11.6437 11.005C11.6437 11.2706 11.595 11.5031 11.4962 11.7037C11.3975 11.9044 11.2631 12.0712 11.0931 12.205C10.9237 12.3394 10.7262 12.44 10.5 12.5075C10.4712 12.5162 10.44 12.52 10.4106 12.5269V13.2094H9.79625V12.6075C9.78813 12.6075 9.78125 12.6087 9.77375 12.6087C9.59937 12.6087 9.43687 12.595 9.2875 12.5669C9.13812 12.5388 9.00562 12.5038 8.89125 12.4644C8.77625 12.4244 8.68125 12.3825 8.60437 12.3388C8.5275 12.295 8.4725 12.2562 8.43875 12.2225C8.405 12.1887 8.38062 12.14 8.36625 12.0763C8.35187 12.0119 8.34437 11.9206 8.34437 11.8006C8.34437 11.72 8.34688 11.6525 8.3525 11.5975C8.35812 11.5425 8.36625 11.4988 8.37813 11.4644C8.39 11.43 8.405 11.4062 8.425 11.3919C8.44438 11.3781 8.46688 11.3706 8.49312 11.3706C8.52938 11.3706 8.58063 11.3919 8.6475 11.435C8.71438 11.4781 8.79937 11.5256 8.90312 11.5775C9.0075 11.63 9.13125 11.6769 9.27625 11.7206C9.42062 11.7631 9.58813 11.785 9.77813 11.785C9.90313 11.785 10.015 11.77 10.1137 11.74C10.2125 11.71 10.2969 11.6681 10.3656 11.6131C10.4344 11.5581 10.4869 11.4906 10.5237 11.41C10.5606 11.3288 10.5788 11.2394 10.5788 11.1394C10.5788 11.025 10.5469 10.9269 10.485 10.8444C10.4225 10.7625 10.3413 10.69 10.2406 10.6256C10.1406 10.5619 10.0269 10.5025 9.89937 10.4463C9.77187 10.39 9.64062 10.3306 9.505 10.2688C9.37 10.2063 9.23812 10.1356 9.11062 10.0556C8.98312 9.97563 8.86938 9.88188 8.76937 9.77125C8.66938 9.66062 8.5875 9.52937 8.52563 9.37875C8.46375 9.22812 8.43188 9.04687 8.43188 8.83625C8.43188 8.59375 8.47688 8.38125 8.56625 8.19812C8.65563 8.015 8.77687 7.8625 8.92937 7.74188C9.08187 7.62125 9.26125 7.53063 9.46813 7.47062C9.57438 7.43937 9.68437 7.4175 9.79688 7.4025V6.75625H10.4113V7.4025C10.4356 7.40562 10.46 7.40437 10.4844 7.40812C10.6038 7.42625 10.7163 7.45062 10.82 7.48187C10.9244 7.5125 11.0163 7.54687 11.0975 7.58625C11.1781 7.625 11.2312 7.65688 11.2575 7.68313C11.2837 7.70938 11.3006 7.73062 11.3106 7.74875C11.3194 7.76687 11.3269 7.79125 11.3338 7.82125C11.3406 7.85125 11.345 7.88875 11.3469 7.935C11.3494 7.98 11.3506 8.03688 11.3506 8.10437C11.3506 8.18 11.3488 8.24437 11.345 8.29687C11.3394 8.34625 11.3331 8.39 11.3237 8.42375ZM6.875 10C6.875 12.0706 8.27375 13.75 10 13.75H1.875V6.25H10C8.27375 6.25 6.875 7.92937 6.875 10ZM4.375 8.75C3.85687 8.75 3.4375 9.31 3.4375 10C3.4375 10.69 3.85687 11.25 4.375 11.25C4.8925 11.25 5.3125 10.69 5.3125 10C5.3125 9.31 4.8925 8.75 4.375 8.75Z" fill="white"/>
</svg>
