<svg width="30" height="30" viewBox="0 0 30 30" fill="none" xmlns="http://www.w3.org/2000/svg">
<g clip-path="url(#clip0_40_1034)">
<path fill-rule="evenodd" clip-rule="evenodd" d="M20.625 15.9375H15.9375V20.625C15.9375 21.1406 15.5184 21.5625 15 21.5625C14.4816 21.5625 14.0625 21.1406 14.0625 20.625V15.9375H9.375C8.85656 15.9375 8.4375 15.5156 8.4375 15C8.4375 14.4844 8.85656 14.0625 9.375 14.0625H14.0625V9.375C14.0625 8.85938 14.4816 8.4375 15 8.4375C15.5184 8.4375 15.9375 8.85938 15.9375 9.375V14.0625H20.625C21.1434 14.0625 21.5625 14.4844 21.5625 15C21.5625 15.5156 21.1434 15.9375 20.625 15.9375ZM15 0C6.71531 0 0 6.7125 0 15C0 23.2875 6.71531 30 15 30C23.2847 30 30 23.2875 30 15C30 6.7125 23.2847 0 15 0Z" fill="#1DB8F1"/>
</g>
<defs>
<clipPath id="clip0_40_1034">
<rect width="30" height="30" fill="white"/>
</clipPath>
</defs>
</svg>
