<svg width="20" height="20" viewBox="0 0 20 20" fill="none" xmlns="http://www.w3.org/2000/svg">
<g clip-path="url(#clip0_212_47)">
<path d="M5.62627 9.99807C5.62627 11.8993 7.1685 13.4416 9.06977 13.4416C10.971 13.4416 12.5133 11.8993 12.5133 9.99807C12.5133 8.0968 10.971 6.55458 9.06977 6.55458C7.1685 6.55458 5.62627 8.0968 5.62627 9.99807ZM9.37169 7.93769C9.37169 8.14576 9.37169 8.14576 9.57976 8.1784C9.73888 8.20288 9.88984 8.25184 10.0408 8.31712C10.1224 8.35384 10.151 8.41096 10.1265 8.49664C10.0898 8.62312 10.053 8.75368 10.0122 8.88016C9.97552 8.99848 9.93472 9.01888 9.82048 8.96176C9.58792 8.8516 9.34721 8.80264 9.09017 8.81896C9.02489 8.82304 8.95961 8.8312 8.89433 8.85976C8.67401 8.95768 8.63729 9.19839 8.82497 9.34935C8.91881 9.42687 9.02897 9.47991 9.13913 9.52887C9.33497 9.61047 9.5308 9.68799 9.7144 9.78999C10.306 10.1164 10.4651 10.8589 10.049 11.3649C9.898 11.5485 9.70216 11.6709 9.47368 11.7321C9.37576 11.7606 9.33089 11.8096 9.33497 11.9157C9.33905 12.0177 9.33497 12.1197 9.33497 12.2217C9.33497 12.3114 9.29009 12.3604 9.20033 12.3644C9.09017 12.3685 8.98001 12.3685 8.87393 12.3644C8.77601 12.3644 8.73113 12.3073 8.73113 12.2135C8.73113 12.1401 8.73113 12.0666 8.73113 11.9891C8.73113 11.8259 8.72297 11.8177 8.56793 11.7933C8.36801 11.7606 8.16809 11.7157 7.9845 11.626C7.83762 11.5566 7.82538 11.5199 7.86618 11.3689C7.89882 11.2547 7.92738 11.1445 7.9641 11.0303C8.0049 10.8997 8.04162 10.8834 8.15993 10.9446C8.36393 11.0507 8.58017 11.1119 8.80865 11.1405C8.95553 11.1568 9.09833 11.1445 9.23297 11.0833C9.48592 10.9732 9.52672 10.6794 9.31049 10.504C9.23705 10.4428 9.15545 10.3979 9.06977 10.3612C8.84945 10.2633 8.61689 10.1898 8.40473 10.0633C8.0661 9.85935 7.84986 9.58191 7.87434 9.16575C7.9029 8.69656 8.16809 8.40688 8.59649 8.25184C8.77193 8.18656 8.77601 8.19064 8.77601 8.00704C8.77601 7.94584 8.77601 7.88057 8.77601 7.81937C8.78009 7.68065 8.80457 7.65617 8.94329 7.65209C8.98817 7.65209 9.02897 7.65209 9.07385 7.65209C9.36761 7.63985 9.36761 7.63985 9.37169 7.93769ZM15.0306 9.99807C15.0306 10.5244 14.6022 10.9528 14.0759 10.9528C13.5496 10.9528 13.1212 10.5244 13.1212 9.99807C13.1212 9.47175 13.5496 9.04336 14.0759 9.04336C14.6022 9.04336 15.0306 9.47175 15.0306 9.99807ZM4.05957 9.04336C4.58588 9.04336 5.01428 9.47175 5.01428 9.99807C5.01428 10.5244 4.58588 10.9528 4.05957 10.9528C3.53325 10.9528 3.10486 10.5244 3.10486 9.99807C3.10486 9.47175 3.53325 9.04336 4.05957 9.04336ZM0 14.0413V5.95482C0 5.08987 0.705834 4.38403 1.57079 4.38403H16.5647C17.4296 4.38403 18.1355 5.08987 18.1355 5.95482V10.912H16.7931V7.65209C16.6667 7.68473 16.5361 7.70105 16.4015 7.70105C15.5243 7.70105 14.8103 6.98705 14.8103 6.10986C14.8103 5.97522 14.8266 5.84466 14.8592 5.72226H3.18645C3.20277 5.8161 3.21501 5.91402 3.21501 6.01602C3.21501 6.89321 2.50102 7.60721 1.62383 7.60721C1.52999 7.60721 1.43615 7.59905 1.34639 7.58273V12.4134C1.43615 12.3971 1.52999 12.3889 1.62383 12.3889C2.50102 12.3889 3.21501 13.1029 3.21501 13.9801C3.21501 14.0821 3.20685 14.176 3.18645 14.2739H12.5092V15.6162H1.57487C0.705834 15.6121 0 14.9063 0 14.0413ZM17.9355 14.486C18.0457 14.486 18.1355 14.5758 18.1355 14.686V15.4122C18.1355 15.5223 18.0457 15.6121 17.9355 15.6121H13.1212C13.011 15.6121 12.9213 15.5223 12.9213 15.4122V14.686C12.9213 14.5758 13.011 14.486 13.1212 14.486H17.9355ZM18.8698 14.0332H14.0555C13.9453 14.0332 13.8556 13.9434 13.8556 13.8332V13.107C13.8556 12.9968 13.9453 12.9071 14.0555 12.9071H18.8698C18.98 12.9071 19.0698 12.9968 19.0698 13.107V13.8332C19.0698 13.9434 18.98 14.0332 18.8698 14.0332ZM20 11.5281V12.2543C20 12.3644 19.9102 12.4542 19.8001 12.4542H14.9857C14.8756 12.4542 14.7858 12.3644 14.7858 12.2543V11.5281C14.7858 11.4179 14.8756 11.3281 14.9857 11.3281H19.8001C19.9102 11.3281 20 11.4179 20 11.5281Z" fill="white"/>
</g>
<defs>
<clipPath id="clip0_212_47">
<rect width="20" height="20" fill="white"/>
</clipPath>
</defs>
</svg>
