<svg width="20" height="20" viewBox="0 0 20 20" fill="none" xmlns="http://www.w3.org/2000/svg">
<path d="M14.1667 16.6667C14.1667 15.286 12.3012 14.1667 10 14.1667C7.69882 14.1667 5.83333 15.286 5.83333 16.6667M17.5 14.1671C17.5 13.1419 16.4716 12.2608 15 11.8751M2.5 14.1671C2.5 13.1419 3.52842 12.2608 5 11.8751M15 8.53016C15.5114 8.07241 15.8333 7.40716 15.8333 6.66675C15.8333 5.28604 14.7141 4.16675 13.3333 4.16675C12.693 4.16675 12.109 4.40746 11.6667 4.80332M5 8.53016C4.48854 8.07241 4.16667 7.40716 4.16667 6.66675C4.16667 5.28604 5.28596 4.16675 6.66667 4.16675C7.30696 4.16675 7.89103 4.40746 8.33333 4.80332M10 11.6667C8.61925 11.6667 7.5 10.5475 7.5 9.16675C7.5 7.78604 8.61925 6.66675 10 6.66675C11.3807 6.66675 12.5 7.78604 12.5 9.16675C12.5 10.5475 11.3807 11.6667 10 11.6667Z" stroke="white" stroke-width="2" stroke-linecap="round" stroke-linejoin="round"/>
</svg>
